<svg width="38px" height="36px" viewBox="0 0 38 36" version="1.1" xmlns="http://www.w3.org/2000/svg" xmlns:xlink="http://www.w3.org/1999/xlink">
    <title>icons8-dew_point</title>
    <defs>
        <linearGradient x1="50%" y1="0%" x2="50%" y2="100%" id="linearGradient-1">
            <stop stop-color="#FFFFFF" offset="0%"></stop>
            <stop stop-color="#FFFFFF" offset="100%"></stop>
        </linearGradient>
    </defs>
    <g stroke="none" stroke-width="1" fill="none" fill-rule="evenodd">
        <g id="icons8-dew_point" transform="translate(-0.000000, 0.000000)" fill="url(#linearGradient-1)" fill-rule="nonzero">
            <path d="M7.5,0 C5.8604058,0 4.5,1.3604058 4.5,3 L4.5,14.8828125 C1.8371505,17.082942 0,20.2829415 0,24 C0,30.609657 5.390343,36 12,36 C18.609657,36 24,30.609657 24,24 C24,20.2829415 22.1628495,17.082942 19.5,14.8828125 L19.5,3 C19.5,1.3604058 18.1395945,0 16.5,0 L7.5,0 Z M27.75,0 C27.75,0 25.5,4.008 25.5,5.25 C25.5,6.492 26.508,7.5 27.75,7.5 C28.992,7.5 30,6.492 30,5.25 C30,4.008 27.75,0 27.75,0 Z M7.5,3 L16.5,3 L16.5,16.171875 L17.141601,16.620117 C19.4739435,18.2483805 21,20.9325795 21,24 C21,28.988343 16.988343,33 12,33 C7.011657,33 3,28.988343 3,24 C3,20.9325795 4.52605665,18.2483805 6.8583984,16.620117 L7.5,16.171875 L7.5,3 Z M10.5,7.5 L10.5,18.1962885 C7.85296583,18.8797484 6.00262642,21.2661565 6,24 C6,27.3137085 8.6862915,30 12,30 C15.3137085,30 18,27.3137085 18,24 C17.9960399,21.2672475 16.1459797,18.882404 13.5,18.199218 L13.5,7.5 L10.5,7.5 Z M34.5,9 C34.5,9 31.5,13.3425 31.5,15 C31.5,16.6575 32.8425,18 34.5,18 C36.1575,18 37.5,16.6575 37.5,15 C37.5,13.3425 34.5,9 34.5,9 Z M32.25,22.5 C32.25,22.5 30,26.508 30,27.75 C30,28.992 31.008,30 32.25,30 C33.492,30 34.5,28.992 34.5,27.75 C34.5,26.508 32.25,22.5 32.25,22.5 Z" id="形状"></path>
        </g>
    </g>
</svg>