<svg width="65px" height="109px" viewBox="0 0 65 109" version="1.1" xmlns="http://www.w3.org/2000/svg" xmlns:xlink="http://www.w3.org/1999/xlink">
    <defs>
        <linearGradient x1="50%" y1="0%" x2="50%" y2="100%" id="linearGradient-1">
            <stop stop-color="#FFF033" offset="0%"></stop>
            <stop stop-color="#FDDC17" offset="100%"></stop>
        </linearGradient>
    </defs>
    <g stroke="none" stroke-width="1" fill="none" fill-rule="evenodd">
        <g transform="translate(-123.000000, 0.000000)" fill="url(#linearGradient-1)" fill-rule="nonzero">
            <path d="M155.5,0 C154.454614,0 153.519685,0.644767417 153.15625,1.61603348 L123.771484,56.8224423 C123.269659,57.6104668 123.002265,58.522746 123,59.4545445 C123,62.1908644 125.238576,64.4090899 128,64.4090899 L153,64.4090899 L153,106.522726 C153,107.890886 154.119288,109 155.5,109 C156.43808,109 157.297828,108.481709 157.72656,107.654918 L187.32617,52.0324027 L187.316405,52.0227265 C187.760045,51.2708601 187.995831,50.4163957 188,49.5454538 C188,46.8091339 185.761424,44.5909084 183,44.5909084 L158,44.5909084 L158,2.47727269 C158,1.10911276 156.880712,0 155.5,0 Z" id="路径"></path>
        </g>
    </g>
</svg>