<svg width="22px" height="22px" viewBox="0 0 22 22" version="1.1" xmlns="http://www.w3.org/2000/svg" xmlns:xlink="http://www.w3.org/1999/xlink">
    <g stroke="none" stroke-width="1" fill="none" fill-rule="evenodd" fill-opacity="0.85">
        <path d="M21.0833333,9.16666667 L12.8333333,9.16666667 L12.8333333,0.916666667 C12.8333333,0.410208333 12.423125,0 11.9166667,0 L10.0833333,0 C9.576875,0 9.16666667,0.410208333 9.16666667,0.916666667 L9.16666667,9.16666667 L0.916666667,9.16666667 C0.410208333,9.16666667 0,9.576875 0,10.0833333 L0,11.9166667 C0,12.423125 0.410208333,12.8333333 0.916666667,12.8333333 L9.16666667,12.8333333 L9.16666667,21.0833333 C9.16666667,21.5897917 9.576875,22 10.0833333,22 L11.9166667,22 C12.423125,22 12.8333333,21.5897917 12.8333333,21.0833333 L12.8333333,12.8333333 L21.0833333,12.8333333 C21.5897917,12.8333333 22,12.423125 22,11.9166667 L22,10.0833333 C22,9.576875 21.5897917,9.16666667 21.0833333,9.16666667 Z" fill="#000000" fill-rule="nonzero"></path>
    </g>
</svg>