
<svg width="20px" height="20px" viewBox="0 0 20 20" version="1.1" xmlns="http://www.w3.org/2000/svg" xmlns:xlink="http://www.w3.org/1999/xlink">
    <g  stroke="none" stroke-width="1" fill="none" fill-rule="evenodd" fill-opacity="0.5">
        <path d="M5.35823171,11.2195122 C5.0941311,11.2195122 4.87804878,10.9843206 4.87804878,10.6968641 L4.87804878,9.30313589 C4.87804878,9.01567944 5.0941311,8.7804878 5.35823171,8.7804878 L14.6417683,8.7804878 C14.9058689,8.7804878 15.1219512,9.01567944 15.1219512,9.30313589 L15.1219512,10.6968641 C15.1219512,10.9843206 14.9058689,11.2195122 14.6417683,11.2195122 L5.35823171,11.2195122 Z M20,10 C20,15.5241935 15.5241935,20 10,20 C4.47580645,20 0,15.5241935 0,10 C0,4.47580645 4.47580645,0 10,0 C15.5241935,0 20,4.47580645 20,10 Z M18.0487805,10 C18.0487805,5.55304878 14.4469512,1.95121951 10,1.95121951 C5.55304878,1.95121951 1.95121951,5.55304878 1.95121951,10 C1.95121951,14.4469512 5.55304878,18.0487805 10,18.0487805 C14.4469512,18.0487805 18.0487805,14.4469512 18.0487805,10 Z"  fill="#000000" fill-rule="nonzero"></path>
    </g>
</svg>