<svg width="164px" height="163px" viewBox="0 0 164 163" version="1.1" xmlns="http://www.w3.org/2000/svg" xmlns:xlink="http://www.w3.org/1999/xlink">
    <title>Snow Thin</title>
    <g stroke="none" stroke-width="1" fill="none" fill-rule="evenodd">
        <g id="Snow-Thin">
            <g transform="translate(81.937391, 81.442860) rotate(-135.000000) translate(-81.937391, -81.442860) translate(54.937391, -0.057140)">
                <path d="M16.7800346,127.181948 L17.1338939,127.181794 C20.4475998,127.175136 23.1350595,129.860259 23.1365008,133.173967 C23.1365016,133.175707 23.1365016,133.177447 23.1312837,133.179184 L23.1214578,155.769988 C23.1147957,159.081656 20.4305164,161.765935 17.1188487,161.772597 L16.7649894,161.772751 C13.4512834,161.77941 10.7638238,159.094287 10.7623825,155.780579 C10.7623817,155.778839 10.7623817,155.777099 10.7675996,155.775361 L10.7774255,133.184557 C10.7840876,129.87289 13.4683668,127.18861 16.7800346,127.181948 Z" id="矩形备份-2" fill="#70BCFF" transform="translate(16.949442, 144.477273) rotate(-315.000000) translate(-16.949442, -144.477273) "></path>
                <path d="M36.7304737,127.357464 L37.084333,127.35731 C40.3980389,127.350652 43.0854986,130.035775 43.0869399,133.349483 C43.0869406,133.351223 43.0869406,133.352963 43.0817227,133.3547 L43.0718969,155.945504 C43.0652348,159.257172 40.3809555,161.941451 37.0692877,161.948113 L36.7154284,161.948267 C33.4017225,161.954926 30.7142629,159.269803 30.7128216,155.956094 C30.7128208,155.954355 30.7128208,155.952615 30.7180387,155.950877 L30.7278646,133.360073 C30.7345267,130.048406 33.4188059,127.364126 36.7304737,127.357464 Z" id="矩形备份" fill="#70BCFF" transform="translate(36.899881, 144.652789) scale(-1, 1) rotate(-315.000000) translate(-36.899881, -144.652789) "></path>
                <path d="M16.7800346,1.2274028 L17.1338939,1.22724889 C20.4475998,1.22059046 23.1350595,3.9057133 23.1365008,7.21942149 C23.1365016,7.22116129 23.1365016,7.22290109 23.1312837,7.22463862 L23.1214578,29.8154426 C23.1147957,33.1271104 20.4305164,35.8113897 17.1188487,35.8180517 L16.7649894,35.8182057 C13.4512834,35.8248641 10.7638238,33.1397412 10.7623825,29.8260331 C10.7623817,29.8242933 10.7623817,29.8225535 10.7675996,29.8208159 L10.7774255,7.23001194 C10.7840876,3.91834414 13.4683668,1.23406489 16.7800346,1.2274028 Z" id="矩形备份-4" fill="#70BCFF" transform="translate(16.949442, 18.522727) scale(1, -1) rotate(-315.000000) translate(-16.949442, -18.522727) "></path>
                <path d="M36.7304737,1.40291876 L37.084333,1.40276485 C40.3980389,1.39610642 43.0854986,4.08122926 43.0869399,7.39493745 C43.0869406,7.39667725 43.0869406,7.39841705 43.0817227,7.40015458 L43.0718969,29.9909586 C43.0652348,33.3026264 40.3809555,35.9869056 37.0692877,35.9935677 L36.7154284,35.9937216 C33.4017225,36.00038 30.7142629,33.3152572 30.7128216,30.001549 C30.7128208,29.9998092 30.7128208,29.9980694 30.7180387,29.9963319 L30.7278646,7.40552789 C30.7345267,4.0938601 33.4188059,1.40958085 36.7304737,1.40291876 Z" id="矩形备份-3" fill="#70BCFF" transform="translate(36.899881, 18.698243) scale(-1, -1) rotate(-315.000000) translate(-36.899881, -18.698243) "></path>
                <rect id="矩形" fill="#0091FF" x="20.6572111" y="0" width="12.3592315" height="163" rx="6"></rect>
            </g>
            <g id="编组" transform="translate(82.000000, 81.500000) rotate(-180.000000) translate(-82.000000, -81.500000) translate(55.000000, 0.000000)">
                <path d="M16.8244407,127.156306 L17.196782,127.155586 C20.5104843,127.149178 23.2019651,129.83027 23.2083726,133.143973 C23.2083875,133.151707 23.2083875,133.159442 23.2083726,133.167176 L23.1645898,155.809853 C23.1581999,159.114497 20.4808472,161.79185 17.1762029,161.79824 L16.8038616,161.79896 C13.4901593,161.805367 10.7986785,159.124275 10.792271,155.810573 C10.792256,155.802838 10.792256,155.795104 10.792271,155.787369 L10.8360537,133.144693 C10.8424437,129.840048 13.5197963,127.162696 16.8244407,127.156306 Z" id="矩形备份-2" fill="#70BCFF" transform="translate(17.000322, 144.477273) rotate(-315.000000) translate(-17.000322, -144.477273) "></path>
                <path d="M36.8347685,127.331821 L37.2071098,127.331102 C40.5208121,127.324694 43.2122929,130.005786 43.2187004,133.319489 C43.2187153,133.327223 43.2187153,133.334958 43.2187004,133.342692 L43.1749177,155.985369 C43.1685277,159.290013 40.491175,161.967366 37.1865307,161.973756 L36.8141894,161.974476 C33.5004871,161.980883 30.8090063,159.299791 30.8025988,155.986089 C30.8025838,155.978354 30.8025838,155.97062 30.8025988,155.962885 L30.8463815,133.320208 C30.8527715,130.015564 33.5301241,127.338211 36.8347685,127.331821 Z" id="矩形备份" fill="#70BCFF" transform="translate(37.010650, 144.652789) scale(-1, 1) rotate(-315.000000) translate(-37.010650, -144.652789) "></path>
                <path d="M16.8244407,1.20176008 L17.196782,1.20104011 C20.5104843,1.19463261 23.2019651,3.87572478 23.2083726,7.18942709 C23.2083875,7.19716162 23.2083875,7.20489617 23.2083726,7.2126307 L23.1645898,29.8553075 C23.1581999,33.1599519 20.4808472,35.8373045 17.1762029,35.8436945 L16.8038616,35.8444144 C13.4901593,35.8508219 10.7986785,33.1697298 10.792271,29.8560275 C10.792256,29.8482929 10.792256,29.8405584 10.792271,29.8328238 L10.8360537,7.19014706 C10.8424437,3.88550269 13.5197963,1.20815007 16.8244407,1.20176008 Z" id="矩形备份-4" fill="#70BCFF" transform="translate(17.000322, 18.522727) scale(1, -1) rotate(-315.000000) translate(-17.000322, -18.522727) "></path>
                <path d="M36.8347685,1.37727604 L37.2071098,1.37655607 C40.5208121,1.37014857 43.2122929,4.05124074 43.2187004,7.36494305 C43.2187153,7.37267758 43.2187153,7.38041213 43.2187004,7.38814666 L43.1749177,30.0308234 C43.1685277,33.3354678 40.491175,36.0128204 37.1865307,36.0192104 L36.8141894,36.0199304 C33.5004871,36.0263379 30.8090063,33.3452457 30.8025988,30.0315434 C30.8025838,30.0238089 30.8025838,30.0160743 30.8025988,30.0083398 L30.8463815,7.36566302 C30.8527715,4.06101865 33.5301241,1.38366603 36.8347685,1.37727604 Z" id="矩形备份-3" fill="#70BCFF" transform="translate(37.010650, 18.698243) scale(-1, -1) rotate(-315.000000) translate(-37.010650, -18.698243) "></path>
                <rect id="矩形" fill="#0091FF" x="20.7192215" y="0" width="12.3963324" height="163" rx="6"></rect>
            </g>
            <g id="编组" transform="translate(81.937391, 81.557140) rotate(-225.000000) translate(-81.937391, -81.557140) translate(54.937391, 0.057140)">
                <path d="M16.7800346,127.181948 L17.1338939,127.181794 C20.4475998,127.175136 23.1350595,129.860259 23.1365008,133.173967 C23.1365016,133.175707 23.1365016,133.177447 23.1312837,133.179184 L23.1214578,155.769988 C23.1147957,159.081656 20.4305164,161.765935 17.1188487,161.772597 L16.7649894,161.772751 C13.4512834,161.77941 10.7638238,159.094287 10.7623825,155.780579 C10.7623817,155.778839 10.7623817,155.777099 10.7675996,155.775361 L10.7774255,133.184557 C10.7840876,129.87289 13.4683668,127.18861 16.7800346,127.181948 Z" id="矩形备份-2" fill="#70BCFF" transform="translate(16.949442, 144.477273) rotate(-315.000000) translate(-16.949442, -144.477273) "></path>
                <path d="M36.7304737,127.357464 L37.084333,127.35731 C40.3980389,127.350652 43.0854986,130.035775 43.0869399,133.349483 C43.0869406,133.351223 43.0869406,133.352963 43.0817227,133.3547 L43.0718969,155.945504 C43.0652348,159.257172 40.3809555,161.941451 37.0692877,161.948113 L36.7154284,161.948267 C33.4017225,161.954926 30.7142629,159.269803 30.7128216,155.956094 C30.7128208,155.954355 30.7128208,155.952615 30.7180387,155.950877 L30.7278646,133.360073 C30.7345267,130.048406 33.4188059,127.364126 36.7304737,127.357464 Z" id="矩形备份" fill="#70BCFF" transform="translate(36.899881, 144.652789) scale(-1, 1) rotate(-315.000000) translate(-36.899881, -144.652789) "></path>
                <path d="M16.7800346,1.2274028 L17.1338939,1.22724889 C20.4475998,1.22059046 23.1350595,3.9057133 23.1365008,7.21942149 C23.1365016,7.22116129 23.1365016,7.22290109 23.1312837,7.22463862 L23.1214578,29.8154426 C23.1147957,33.1271104 20.4305164,35.8113897 17.1188487,35.8180517 L16.7649894,35.8182057 C13.4512834,35.8248641 10.7638238,33.1397412 10.7623825,29.8260331 C10.7623817,29.8242933 10.7623817,29.8225535 10.7675996,29.8208159 L10.7774255,7.23001194 C10.7840876,3.91834414 13.4683668,1.23406489 16.7800346,1.2274028 Z" id="矩形备份-4" fill="#70BCFF" transform="translate(16.949442, 18.522727) scale(1, -1) rotate(-315.000000) translate(-16.949442, -18.522727) "></path>
                <path d="M36.7304737,1.40291876 L37.084333,1.40276485 C40.3980389,1.39610642 43.0854986,4.08122926 43.0869399,7.39493745 C43.0869406,7.39667725 43.0869406,7.39841705 43.0817227,7.40015458 L43.0718969,29.9909586 C43.0652348,33.3026264 40.3809555,35.9869056 37.0692877,35.9935677 L36.7154284,35.9937216 C33.4017225,36.00038 30.7142629,33.3152572 30.7128216,30.001549 C30.7128208,29.9998092 30.7128208,29.9980694 30.7180387,29.9963319 L30.7278646,7.40552789 C30.7345267,4.0938601 33.4188059,1.40958085 36.7304737,1.40291876 Z" id="矩形备份-3" fill="#70BCFF" transform="translate(36.899881, 18.698243) scale(-1, -1) rotate(-315.000000) translate(-36.899881, -18.698243) "></path>
                <rect id="矩形" fill="#0091FF" x="20.6572111" y="0" width="12.3592315" height="163" rx="6"></rect>
            </g>
            <g id="编组" transform="translate(82.000000, 81.500000) rotate(-270.000000) translate(-82.000000, -81.500000) translate(55.000000, 0.000000)">
                <path d="M16.8244407,127.156306 L17.196782,127.155586 C20.5104843,127.149178 23.2019651,129.83027 23.2083726,133.143973 C23.2083875,133.151707 23.2083875,133.159442 23.2083726,133.167176 L23.1645898,155.809853 C23.1581999,159.114497 20.4808472,161.79185 17.1762029,161.79824 L16.8038616,161.79896 C13.4901593,161.805367 10.7986785,159.124275 10.792271,155.810573 C10.792256,155.802838 10.792256,155.795104 10.792271,155.787369 L10.8360537,133.144693 C10.8424437,129.840048 13.5197963,127.162696 16.8244407,127.156306 Z" id="矩形备份-2" fill="#70BCFF" transform="translate(17.000322, 144.477273) rotate(-315.000000) translate(-17.000322, -144.477273) "></path>
                <path d="M36.8347685,127.331821 L37.2071098,127.331102 C40.5208121,127.324694 43.2122929,130.005786 43.2187004,133.319489 C43.2187153,133.327223 43.2187153,133.334958 43.2187004,133.342692 L43.1749177,155.985369 C43.1685277,159.290013 40.491175,161.967366 37.1865307,161.973756 L36.8141894,161.974476 C33.5004871,161.980883 30.8090063,159.299791 30.8025988,155.986089 C30.8025838,155.978354 30.8025838,155.97062 30.8025988,155.962885 L30.8463815,133.320208 C30.8527715,130.015564 33.5301241,127.338211 36.8347685,127.331821 Z" id="矩形备份" fill="#70BCFF" transform="translate(37.010650, 144.652789) scale(-1, 1) rotate(-315.000000) translate(-37.010650, -144.652789) "></path>
                <path d="M16.8244407,1.20176008 L17.196782,1.20104011 C20.5104843,1.19463261 23.2019651,3.87572478 23.2083726,7.18942709 C23.2083875,7.19716162 23.2083875,7.20489617 23.2083726,7.2126307 L23.1645898,29.8553075 C23.1581999,33.1599519 20.4808472,35.8373045 17.1762029,35.8436945 L16.8038616,35.8444144 C13.4901593,35.8508219 10.7986785,33.1697298 10.792271,29.8560275 C10.792256,29.8482929 10.792256,29.8405584 10.792271,29.8328238 L10.8360537,7.19014706 C10.8424437,3.88550269 13.5197963,1.20815007 16.8244407,1.20176008 Z" id="矩形备份-4" fill="#70BCFF" transform="translate(17.000322, 18.522727) scale(1, -1) rotate(-315.000000) translate(-17.000322, -18.522727) "></path>
                <path d="M36.8347685,1.37727604 L37.2071098,1.37655607 C40.5208121,1.37014857 43.2122929,4.05124074 43.2187004,7.36494305 C43.2187153,7.37267758 43.2187153,7.38041213 43.2187004,7.38814666 L43.1749177,30.0308234 C43.1685277,33.3354678 40.491175,36.0128204 37.1865307,36.0192104 L36.8141894,36.0199304 C33.5004871,36.0263379 30.8090063,33.3452457 30.8025988,30.0315434 C30.8025838,30.0238089 30.8025838,30.0160743 30.8025988,30.0083398 L30.8463815,7.36566302 C30.8527715,4.06101865 33.5301241,1.38366603 36.8347685,1.37727604 Z" id="矩形备份-3" fill="#70BCFF" transform="translate(37.010650, 18.698243) scale(-1, -1) rotate(-315.000000) translate(-37.010650, -18.698243) "></path>
                <rect id="矩形" fill="#0091FF" x="20.7192215" y="0" width="12.3963324" height="163" rx="6"></rect>
            </g>
        </g>
    </g>
</svg>