<svg width="217px" height="215px" viewBox="0 0 217 215" version="1.1" xmlns="http://www.w3.org/2000/svg" xmlns:xlink="http://www.w3.org/1999/xlink">
    <title>形状结合</title>
    <defs>
        <linearGradient x1="28.0069987%" y1="28.9218479%" x2="71.1290148%" y2="72.5653754%" id="linearGradient-1">
            <stop stop-color="#F9D423" offset="0%"></stop>
            <stop stop-color="#F89C00" offset="100%"></stop>
        </linearGradient>
        <path d="M107.5,191 C109.985281,191 112,193.014719 112,195.5 L112,210.5 C112,212.985281 109.985281,215 107.5,215 C105.014719,215 103,212.985281 103,210.5 L103,195.5 C103,193.014719 105.014719,191 107.5,191 Z M155.424211,181.548835 L162.889489,194.479075 C164.126377,196.621428 163.392352,199.360843 161.25,200.597731 C159.107648,201.834619 156.368232,201.100594 155.131345,198.958242 L147.666067,186.028002 C146.429179,183.885649 147.163203,181.146234 149.305556,179.909346 C151.447908,178.672459 154.187323,179.406483 155.424211,181.548835 Z M65.6944444,179.909346 C67.8367968,181.146234 68.570821,183.885649 67.3339332,186.028002 L59.8686555,198.958242 C58.6317677,201.100594 55.8923524,201.834619 53.75,200.597731 C51.6076476,199.360843 50.8736235,196.621428 52.1105112,194.479075 L59.575789,181.548835 C60.8126767,179.406483 63.5520921,178.672459 65.6944444,179.909346 Z M186.028002,147.666067 L198.958242,155.131345 C201.100594,156.368232 201.834619,159.107648 200.597731,161.25 C199.360843,163.392352 196.621428,164.126377 194.479075,162.889489 L181.548835,155.424211 C179.406483,154.187323 178.672459,151.447908 179.909346,149.305556 C181.146234,147.163203 183.885649,146.429179 186.028002,147.666067 Z M35.0906537,149.305556 C36.3275415,151.447908 35.5935173,154.187323 33.451165,155.424211 L20.5209245,162.889489 C18.3785722,164.126377 15.6391568,163.392352 14.4022691,161.25 C13.1653814,159.107648 13.8994055,156.368232 16.0417579,155.131345 L28.9719983,147.666067 C31.1143507,146.429179 33.853766,147.163203 35.0906537,149.305556 Z M211,103.5 C213.485281,103.5 215.5,105.514719 215.5,108 C215.5,110.485281 213.485281,112.5 211,112.5 L196,112.5 C193.514719,112.5 191.5,110.485281 191.5,108 C191.5,105.514719 193.514719,103.5 196,103.5 L211,103.5 Z M19,103.5 C21.4852814,103.5 23.5,105.514719 23.5,108 C23.5,110.485281 21.4852814,112.5 19,112.5 L4,112.5 C1.51471863,112.5 -0.5,110.485281 -0.5,108 C-0.5,105.514719 1.51471863,103.5 4,103.5 L19,103.5 Z M200.597731,53.75 C201.834619,55.8923524 201.100594,58.6317677 198.958242,59.8686555 L186.028002,67.3339332 C183.885649,68.570821 181.146234,67.8367968 179.909346,65.6944444 C178.672459,63.5520921 179.406483,60.8126767 181.548835,59.575789 L194.479075,52.1105112 C196.621428,50.8736235 199.360843,51.6076476 200.597731,53.75 Z M20.5209245,52.1105112 L33.451165,59.575789 C35.5935173,60.8126767 36.3275415,63.5520921 35.0906537,65.6944444 C33.853766,67.8367968 31.1143507,68.570821 28.9719983,67.3339332 L16.0417579,59.8686555 C13.8994055,58.6317677 13.1653814,55.8923524 14.4022691,53.75 C15.6391568,51.6076476 18.3785722,50.8736235 20.5209245,52.1105112 Z M161.25,14.4022691 C163.392352,15.6391568 164.126377,18.3785722 162.889489,20.5209245 L155.424211,33.451165 C154.187323,35.5935173 151.447908,36.3275415 149.305556,35.0906537 C147.163203,33.853766 146.429179,31.1143507 147.666067,28.9719983 L155.131345,16.0417579 C156.368232,13.8994055 159.107648,13.1653814 161.25,14.4022691 Z M59.8686555,16.0417579 L67.3339332,28.9719983 C68.570821,31.1143507 67.8367968,33.853766 65.6944444,35.0906537 C63.5520921,36.3275415 60.8126767,35.5935173 59.575789,33.451165 L52.1105112,20.5209245 C50.8736235,18.3785722 51.6076476,15.6391568 53.75,14.4022691 C55.8923524,13.1653814 58.6317677,13.8994055 59.8686555,16.0417579 Z M107.5,0 C109.985281,-4.56538782e-16 112,2.01471863 112,4.5 L112,19.5 C112,21.9852814 109.985281,24 107.5,24 C105.014719,24 103,21.9852814 103,19.5 L103,4.5 C103,2.01471863 105.014719,4.56538782e-16 107.5,0 Z" id="path-2"></path>
    </defs>
    <g stroke="none" stroke-width="1" fill="none" fill-rule="evenodd">
        <g transform="translate(1.000000, 0.000000)">
            <use fill="#D8D8D8" xlink:href="#path-2"></use>
            <use fill="url(#linearGradient-1)" xlink:href="#path-2"></use>
        </g>
    </g>
</svg>