<svg width="166px" height="164px" viewBox="0 0 166 164" version="1.1" xmlns="http://www.w3.org/2000/svg" xmlns:xlink="http://www.w3.org/1999/xlink">
    <defs>
        <linearGradient x1="28.0069987%" y1="29.4266955%" x2="71.1290148%" y2="72.024907%" id="linearGradient-1">
            <stop stop-color="#F9D423" offset="0%"></stop>
            <stop stop-color="#F89C00" offset="100%"></stop>
        </linearGradient>
        <path d="M83.5,141 C85.4329966,141 87,142.567003 87,144.5 L87,160.5 C87,162.432997 85.4329966,164 83.5,164 C81.5670034,164 80,162.432997 80,160.5 L80,144.5 C80,142.567003 81.5670034,141 83.5,141 Z M117.30217,134.857372 L125.318916,148.722438 C126.227767,150.294307 125.690284,152.305327 124.118415,153.214178 L124.114005,153.216723 C122.537578,154.124954 120.523426,153.584964 119.612754,152.009945 L111.596009,138.144879 C110.687158,136.57301 111.224641,134.561989 112.79651,133.653139 C112.797979,133.652289 112.799449,133.651441 112.800919,133.650594 C114.377347,132.742362 116.391499,133.282353 117.30217,134.857372 Z M53.2507086,133.650594 C54.8239832,134.557009 55.3645796,136.567194 54.4581644,138.140469 C54.4573172,138.14194 54.4564688,138.14341 54.4556192,138.144879 L46.4388737,152.009945 C45.5282018,153.584964 43.51405,154.124954 41.9376227,153.216723 C40.3643481,152.310308 39.8237517,150.300122 40.7301669,148.726847 L40.732712,148.722438 L48.7494576,134.857372 C49.6601294,133.282353 51.6742813,132.742362 53.2507086,133.650594 Z M139.105167,110.684897 L152.98659,118.687589 C154.559227,119.59422 155.099131,121.604063 154.1925,123.1767 C154.191653,123.17817 154.190804,123.179639 154.189955,123.181107 C153.279068,124.755487 151.26526,125.294785 149.689472,124.386337 L135.808048,116.383645 C134.235412,115.477014 133.695508,113.467171 134.602138,111.894534 L134.604684,111.890126 C135.515571,110.315747 137.529379,109.776449 139.105167,110.684897 Z M31.4511244,111.890126 C32.3601897,113.461357 31.8233985,115.472034 30.2521679,116.381099 C30.2506992,116.381949 30.2492299,116.382798 30.24776,116.383645 L16.3663369,124.386337 C14.790549,125.294785 12.7767407,124.755487 11.8658538,123.181107 C10.9567886,121.609877 11.4935797,119.5992 13.0648104,118.690134 C13.066279,118.689285 13.0677483,118.688436 13.0692183,118.687589 L26.9506413,110.684897 C28.5264293,109.776449 30.5402375,110.315747 31.4511244,111.890126 Z M162.5,79 C164.432997,79 166,80.5670034 166,82.5 C166,84.4329966 164.432997,86 162.5,86 L146.5,86 C144.567003,86 143,84.4329966 143,82.5 C143,80.5670034 144.567003,79 146.5,79 L162.5,79 Z M19.5,79 C21.4329966,79 23,80.5670034 23,82.5 C23,84.4329966 21.4329966,86 19.5,86 L3.5,86 C1.56700338,86 -3.76857341e-16,84.4329966 -6.4293957e-16,82.5 C-1.79720022e-15,80.5670034 1.56700338,79 3.5,79 L19.5,79 Z M154.189955,41.1505826 C155.09902,42.7218132 154.562229,44.7324903 152.990998,45.6415556 C152.989529,45.6424053 152.98806,45.6432538 152.98659,45.6441013 L139.105167,53.6467932 C137.529379,54.5552408 135.515571,54.0159429 134.604684,52.4415637 C133.695619,50.8703331 134.23241,48.8596559 135.803641,47.9505907 C135.805109,47.949741 135.806579,47.9488924 135.808048,47.948045 L149.689472,39.9453531 C151.26526,39.0369055 153.279068,39.5762034 154.189955,41.1505826 Z M16.3663369,39.9453531 L30.24776,47.948045 C31.8203966,48.8546758 32.360301,50.8645192 31.4536701,52.4371558 L31.4511244,52.4415637 C30.5402375,54.0159429 28.5264293,54.5552408 26.9506413,53.6467932 L13.0692183,45.6441013 C11.4965816,44.7374704 10.9566773,42.7276271 11.8633081,41.1549904 L11.8658538,41.1505826 C12.7767407,39.5762034 14.790549,39.0369055 16.3663369,39.9453531 Z M124.114005,11.1261098 C125.68728,12.0325249 126.227876,14.0427107 125.321461,15.6159853 C125.320614,15.6174558 125.319765,15.6189258 125.318916,15.620395 L117.30217,29.4854609 C116.391499,31.0604797 114.377347,31.6004706 112.800919,30.6922391 C111.227645,29.7858239 110.687048,27.7756382 111.593464,26.2023636 C111.594311,26.200893 111.595159,26.1994231 111.596009,26.1979538 L119.612754,12.332888 C120.523426,10.7578692 122.537578,10.2178783 124.114005,11.1261098 Z M46.4388737,12.332888 L54.4556192,26.1979538 C55.3644698,27.7698228 54.8269873,29.7808433 53.2551183,30.6896939 C53.2536491,30.6905434 53.2521791,30.6913918 53.2507086,30.6922391 C51.6742813,31.6004706 49.6601294,31.0604797 48.7494576,29.4854609 L40.732712,15.620395 C39.8238614,14.0485261 40.361344,12.0375055 41.9332129,11.1286549 L41.9376227,11.1261098 C43.51405,10.2178783 45.5282018,10.7578692 46.4388737,12.332888 Z M83.5,0 C85.4329966,-7.99174929e-16 87,1.56700338 87,3.5 L87,19.5 C87,21.4329966 85.4329966,23 83.5,23 C81.5670034,23 80,21.4329966 80,19.5 L80,3.5 C80,1.56700338 81.5670034,-8.90034905e-17 83.5,0 Z" id="path-2"></path>
    </defs>
    <g stroke="none" stroke-width="1" fill="none" fill-rule="evenodd">
        <g>
            <use fill="#D8D8D8" xlink:href="#path-2"></use>
            <use fill="url(#linearGradient-1)" xlink:href="#path-2"></use>
        </g>
    </g>
</svg>