<svg width="37px" height="36px" viewBox="0 0 37 36" version="1.1" xmlns="http://www.w3.org/2000/svg" xmlns:xlink="http://www.w3.org/1999/xlink">
    <title>icons8-wind</title>
    <g stroke="none" stroke-width="1" fill="none" fill-rule="evenodd">
        <g id="Day备份" transform="translate(-53.000000, -299.000000)" fill="#FFFFFF" fill-rule="nonzero">
            <g transform="translate(2.000000, 278.000000)">
                <g id="icons8-wind" transform="translate(51.000000, 21.000000)">
                    <path d="M10.7428788,0 C8.85751541,0 7.14121031,0.78670275 5.92061306,2.03613285 C5.52022768,2.41397729 5.35896759,2.98077307 5.50048515,3.5127953 C5.64200272,4.04481753 6.06355982,4.45658431 6.59875998,4.58556361 C7.13396014,4.71454291 7.69681087,4.54001115 8.06514446,4.1308593 C8.74954736,3.4302894 9.68524211,3 10.7428788,3 C12.8317218,3 14.4928788,4.661157 14.4928788,6.75 C14.4928788,8.838843 12.8317218,10.5 10.7428788,10.5 L2.49287876,10.5 C1.95192488,10.4923496 1.44875671,10.7765629 1.17604717,11.2438093 C0.903337638,11.7110556 0.903337638,12.2889444 1.17604717,12.7561907 C1.44875671,13.2234371 1.95192488,13.5076504 2.49287876,13.5 L10.7428788,13.5 C14.4530358,13.5 17.4928788,10.460157 17.4928788,6.75 C17.4928788,3.039843 14.4530358,0 10.7428788,0 Z M28.7428788,3 C26.3171433,3 24.1168233,4.05807165 22.6081128,5.7333984 C22.2364579,6.12965816 22.1080868,6.69589051 22.2725152,7.21368628 C22.4369436,7.73148204 22.8684731,8.11991537 23.4006527,8.22915839 C23.9328323,8.3384014 24.482488,8.15138059 24.8376048,7.7402343 C25.8008958,6.67056135 27.1846143,6 28.7428788,6 C31.6595133,6 33.9928788,8.3333652 33.9928788,11.25 C33.9928788,14.1666345 31.6595133,16.5 28.7428788,16.5 L2.49287876,16.5 C1.95192488,16.4923496 1.44875671,16.7765629 1.17604717,17.2438093 C0.903337638,17.7110556 0.903337638,18.2889444 1.17604717,18.7561907 C1.44875671,19.2234371 1.95192488,19.5076504 2.49287876,19.5001506 L28.7428788,19.5001506 C33.2812443,19.5001506 36.9928788,15.7883655 36.9928788,11.25 C36.9928788,6.7116348 33.2812443,3 28.7428788,3 Z M2.49287876,22.5 C1.95192488,22.4923496 1.44875671,22.7765629 1.17604717,23.2438093 C0.903337638,23.7110556 0.903337638,24.2889444 1.17604717,24.7561907 C1.44875671,25.2234371 1.95192488,25.5076504 2.49287876,25.5 L24.2428788,25.5 C26.3317218,25.5 27.9928788,27.161157 27.9928788,29.25 C27.9928788,31.338843 26.3317218,33 24.2428788,33 C23.1852423,33 22.2495468,32.56971 21.5651448,31.869141 C21.1968111,31.4599897 20.6339607,31.2854582 20.0987609,31.4144375 C19.5635611,31.5434167 19.1420041,31.9551831 19.0004864,32.487205 C18.8589686,33.0192268 19.0202281,33.5860223 19.4206128,33.963867 C20.6412108,35.2132965 22.3575153,36 24.2428788,36 C27.9530358,36 30.9928788,32.960157 30.9928788,29.25 C30.9928788,25.539843 27.9530358,22.5 24.2428788,22.5 L2.49287876,22.5 Z" id="形状"></path>
                </g>
            </g>
        </g>
    </g>
</svg>