<svg width="258px" height="256px" viewBox="0 0 258 256" version="1.1" xmlns="http://www.w3.org/2000/svg" xmlns:xlink="http://www.w3.org/1999/xlink">
    <defs>
        <linearGradient x1="25.1486073%" y1="9.15421196%" x2="77.6579484%" y2="83.6659307%" id="linearGradient-1">
            <stop stop-color="#F9D423" offset="0%"></stop>
            <stop stop-color="#F89C00" offset="100%"></stop>
        </linearGradient>
        <linearGradient x1="28.0069987%" y1="29.1165642%" x2="71.1290148%" y2="72.3569204%" id="linearGradient-2">
            <stop stop-color="#F9D423" offset="0%"></stop>
            <stop stop-color="#F89C00" offset="100%"></stop>
        </linearGradient>
        <path d="M129.85814,227.423256 C132.343421,227.423256 134.35814,229.437974 134.35814,231.923256 L134.35814,251.5 C134.35814,253.985281 132.343421,256 129.85814,256 L128.14186,256 C125.656579,256 123.64186,253.985281 123.64186,251.5 L123.64186,231.923256 C123.64186,229.437974 125.656579,227.423256 128.14186,227.423256 L129.85814,227.423256 Z M185.636163,215.430046 L195.379219,232.305513 C196.616107,234.447865 195.882082,237.187281 193.73973,238.424168 L192.26027,239.278335 C190.117918,240.515223 187.378502,239.781199 186.141615,237.638846 L176.398559,220.763379 C175.161671,218.621027 175.895695,215.881611 178.038048,214.644724 L179.517508,213.790557 C181.65986,212.553669 184.399276,213.287693 185.636163,215.430046 Z M78.4824922,213.790557 L79.9619523,214.644724 C82.1043046,215.881611 82.8383288,218.621027 81.601441,220.763379 L71.8583855,237.638846 C70.6214978,239.781199 67.8820824,240.515223 65.73973,239.278335 L64.26027,238.424168 C62.1179176,237.187281 61.3838935,234.447865 62.6207812,232.305513 L72.3638367,215.430046 C73.6007245,213.287693 76.3401398,212.553669 78.4824922,213.790557 Z M221.763379,175.398559 L238.638846,185.141615 C240.781199,186.378502 241.515223,189.117918 240.278335,191.26027 L239.424168,192.73973 C238.187281,194.882082 235.447865,195.616107 233.305513,194.379219 L216.430046,184.636163 C214.287693,183.399276 213.553669,180.65986 214.790557,178.517508 L215.644724,177.038048 C216.881611,174.895695 219.621027,174.161671 221.763379,175.398559 Z M42.3552765,177.038048 L43.2094431,178.517508 C44.4463309,180.65986 43.7123067,183.399276 41.5699543,184.636163 L24.6944871,194.379219 C22.5521347,195.616107 19.8127194,194.882082 18.5758316,192.73973 L17.721665,191.26027 C16.4847773,189.117918 17.2188014,186.378502 19.3611538,185.141615 L36.236621,175.398559 C38.3789734,174.161671 41.1183887,174.895695 42.3552765,177.038048 Z M253.095349,123.237209 C255.58063,123.237209 257.595349,125.251928 257.595349,127.737209 L257.595349,129.453488 C257.595349,131.93877 255.58063,133.953488 253.095349,133.953488 L233.518605,133.953488 C231.033323,133.953488 229.018605,131.93877 229.018605,129.453488 L229.018605,127.737209 C229.018605,125.251928 231.033323,123.237209 233.518605,123.237209 L253.095349,123.237209 Z M24.4813953,123.237209 C26.9666767,123.237209 28.9813953,125.251928 28.9813953,127.737209 L28.9813953,129.453488 C28.9813953,131.93877 26.9666767,133.953488 24.4813953,133.953488 L4.90465116,133.953488 C2.41936979,133.953488 0.404651163,131.93877 0.404651163,129.453488 L0.404651163,127.737209 C0.404651163,125.251928 2.41936979,123.237209 4.90465116,123.237209 L24.4813953,123.237209 Z M239.424168,63.26027 L240.278335,64.73973 C241.515223,66.8820824 240.781199,69.6214978 238.638846,70.8583855 L221.763379,80.601441 C219.621027,81.8383288 216.881611,81.1043046 215.644724,78.9619523 L214.790557,77.4824922 C213.553669,75.3401398 214.287693,72.6007245 216.430046,71.3638367 L233.305513,61.6207812 C235.447865,60.3838935 238.187281,61.1179176 239.424168,63.26027 Z M24.6944871,61.6207812 L41.5699543,71.3638367 C43.7123067,72.6007245 44.4463309,75.3401398 43.2094431,77.4824922 L42.3552765,78.9619523 C41.1183887,81.1043046 38.3789734,81.8383288 36.236621,80.601441 L19.3611538,70.8583855 C17.2188014,69.6214978 16.4847773,66.8820824 17.721665,64.73973 L18.5758316,63.26027 C19.8127194,61.1179176 22.5521347,60.3838935 24.6944871,61.6207812 Z M192.26027,16.721665 L193.73973,17.5758316 C195.882082,18.8127194 196.616107,21.5521347 195.379219,23.6944871 L185.636163,40.5699543 C184.399276,42.7123067 181.65986,43.4463309 179.517508,42.2094431 L178.038048,41.3552765 C175.895695,40.1183887 175.161671,37.3789734 176.398559,35.236621 L186.141615,18.3611538 C187.378502,16.2188014 190.117918,15.4847773 192.26027,16.721665 Z M71.8583855,18.3611538 L81.601441,35.236621 C82.8383288,37.3789734 82.1043046,40.1183887 79.9619523,41.3552765 L78.4824922,42.2094431 C76.3401398,43.4463309 73.6007245,42.7123067 72.3638367,40.5699543 L62.6207812,23.6944871 C61.3838935,21.5521347 62.1179176,18.8127194 64.26027,17.5758316 L65.73973,16.721665 C67.8820824,15.4847773 70.6214978,16.2188014 71.8583855,18.3611538 Z M129.85814,0 C132.343421,4.31639638e-16 134.35814,2.01471863 134.35814,4.5 L134.35814,24.0767442 C134.35814,26.5620256 132.343421,28.5767442 129.85814,28.5767442 L128.14186,28.5767442 C125.656579,28.5767442 123.64186,26.5620256 123.64186,24.0767442 L123.64186,4.5 C123.64186,2.01471863 125.656579,1.3447172e-15 128.14186,0 L129.85814,0 Z" id="path-3"></path>
    </defs>
    <g stroke="none" stroke-width="1" fill="none" fill-rule="evenodd">
        <g id="Small-Icon" transform="translate(-307.000000, -243.000000)">
            <g transform="translate(307.000000, 243.000000)">
                <circle fill="url(#linearGradient-1)" cx="128.5" cy="127.5" r="81.5"></circle>
                <g>
                    <use fill="#D8D8D8" xlink:href="#path-3"></use>
                    <use fill="url(#linearGradient-2)" xlink:href="#path-3"></use>
                </g>
            </g>
        </g>
    </g>
</svg>