<svg width="256px" height="256px" viewBox="0 0 256 256" version="1.1" xmlns="http://www.w3.org/2000/svg" xmlns:xlink="http://www.w3.org/1999/xlink">
    <defs>
        <linearGradient x1="50%" y1="0%" x2="50%" y2="100%" id="linearGradient-1">
            <stop stop-color="#DFDFDF" offset="0%"></stop>
            <stop stop-color="#B6B6B6" offset="99.9480988%"></stop>
        </linearGradient>
        <linearGradient x1="50%" y1="0%" x2="50%" y2="100%" id="linearGradient-2">
            <stop stop-color="#FFFFFF" offset="0%"></stop>
            <stop stop-color="#EFEFEF" offset="100%"></stop>
        </linearGradient>
    </defs>
    <g stroke="none" stroke-width="1" fill="none" fill-rule="evenodd">
        <g id="Day-Mode" transform="translate(-308.000000, -243.000000)">
            <rect id="icon-container" stroke="#979797" x="308.5" y="243.5" width="255" height="255"></rect>
            <g transform="translate(308.000000, 266.000000)">
                <path d="M151.309677,119 L151.309589,118.990706 C150.95767,118.996893 150.605003,119 150.251613,119 C117.527851,119 91,92.3609426 91,59.5 C91,26.6390574 117.527851,0 150.251613,0 C172.084808,0 191.159882,11.8584242 201.438169,29.5112924 C204.21934,28.9707091 207.092864,28.6875 210.032258,28.6875 C234.867256,28.6875 255,48.9046418 255,73.84375 C255,98.7828582 234.867256,119 210.032258,119 L210.561,118.995 L210.56129,119 L151.309677,119 Z" id="形状结合" fill="url(#linearGradient-1)"></path>
                <path d="M93.6976744,210 L93.6980891,209.983104 C93.1062796,209.994351 92.5131012,210 91.9186047,210 C41.1533611,210 0,168.810197 0,118 C0,67.189803 41.1533611,26 91.9186047,26 C126.088908,26 155.904361,44.6618384 171.745983,72.3580155 C176.042903,71.5388702 180.482574,71.1096774 185.023256,71.1096774 C223.670344,71.1096774 255,102.201335 255,140.554839 C255,178.515161 224.309405,209.361763 186.209497,209.990223 L186.209302,210 L93.6976744,210 Z" id="形状结合" fill="url(#linearGradient-2)"></path>
            </g>
        </g>
    </g>
</svg>