<svg width="256px" height="256px" viewBox="0 0 256 256" version="1.1" xmlns="http://www.w3.org/2000/svg" xmlns:xlink="http://www.w3.org/1999/xlink">
    <defs>
        <linearGradient x1="50%" y1="0%" x2="50%" y2="100%" id="linearGradient-1">
            <stop stop-color="#FFFFFF" offset="0%"></stop>
            <stop stop-color="#EFEFEF" offset="100%"></stop>
        </linearGradient>
    </defs>
    <g stroke="none" stroke-width="1" fill="none" fill-rule="evenodd">
        <g id="Small-Icon" transform="translate(-308.000000, -243.000000)">
            <g transform="translate(308.000000, 274.000000)">
                <path d="M158,178 L174,178 L174,219 C174,222.313708 171.313708,225 168,225 L164,225 C160.686292,225 158,222.313708 158,219 L158,178 L158,178 Z" id="矩形" fill-opacity="0.504261364" fill="#FFFFFF"></path>
                <path d="M97,178 L113,178 L113,219 C113,222.313708 110.313708,225 107,225 L103,225 C99.6862915,225 97,222.313708 97,219 L97,178 L97,178 Z" id="矩形" fill-opacity="0.504261364" fill="#FFFFFF"></path>
                <path d="M65,177 L81,177 L81,202 C81,205.313708 78.3137085,208 75,208 L71,208 C67.6862915,208 65,205.313708 65,202 L65,177 L65,177 Z" id="矩形" fill-opacity="0.504261364" fill="#FFFFFF"></path>
                <path d="M127,177 L143,177 L143,202 C143,205.313708 140.313708,208 137,208 L133,208 C129.686292,208 127,205.313708 127,202 L127,177 L127,177 Z" id="矩形" fill-opacity="0.504261364" fill="#FFFFFF"></path>
                <path d="M190,177 L206,177 L206,202 C206,205.313708 203.313708,208 200,208 L196,208 C192.686292,208 190,205.313708 190,202 L190,177 L190,177 Z" id="矩形" fill-opacity="0.504261364" fill="#FFFFFF"></path>
                <path d="M93.0909091,187 L93.09,186.995 L92.4444444,187 C41.8993441,187 0.828742438,145.971665 0.0123849144,95.0461935 L0,93.5 C0,41.8613759 41.3887876,0 92.4444444,0 C126.682604,0 156.57347,18.8255023 172.550411,46.8006409 C176.958757,45.9151668 181.516859,45.4513889 186.181818,45.4513889 C224.741335,45.4513889 256,77.1381248 256,116.225694 C256,155.313264 224.741335,187 186.181818,187 L186.181818,187 L93.0909091,187 Z" id="形状结合" fill="url(#linearGradient-1)"></path>
            </g>
        </g>
    </g>
</svg>