<svg width="256px" height="256px" viewBox="0 0 256 256" version="1.1" xmlns="http://www.w3.org/2000/svg" xmlns:xlink="http://www.w3.org/1999/xlink">
    <g stroke="none" stroke-width="1" fill="none" fill-rule="evenodd">
        <g id="Small-Icon" transform="translate(-308.000000, -243.000000)">
            <g transform="translate(308.000000, 243.000000)">
                <path d="M127.078644,204.416319 L127.116113,204.393079 C129.419607,203.020692 132.444491,203.326092 134.426319,205.309588 L134.426319,205.309588 L164.37255,235.26127 C166.714409,237.605099 166.714409,241.403494 164.37255,243.747323 L164.37255,243.747323 L159.131795,248.989032 L159.131795,248.989032 C156.788436,251.333509 152.989446,251.333163 150.647286,248.989032 L150.647286,248.989032 L126.732478,225.069547 L103.093699,248.71309 C100.751538,251.057221 96.9525484,251.057567 94.6091894,248.714634 L94.6091894,248.71309 L89.3684341,243.471381 C87.0265754,241.127552 87.0265754,237.329157 89.3684341,234.985328 L119.314666,205.033646 C121.429581,202.916951 124.732347,202.7113 127.078644,204.416319 Z M186.9745,177.276879 L229.328749,177.280755 C232.642029,177.282156 235.327897,179.968024 235.329298,183.281304 L235.329298,183.281304 L235.329976,190.693515 C235.331074,190.693881 235.331074,190.694247 235.331074,190.694613 C235.330771,194.008322 232.644234,196.694367 229.330525,196.692966 L229.330525,196.692966 L195.506478,196.689547 L195.509938,230.123272 C195.511339,233.43698 192.825294,236.123517 189.511585,236.123821 C189.511219,236.123821 189.510853,236.123821 189.510487,236.122723 L182.098255,236.122044 C178.784976,236.120643 176.099108,233.434775 176.097706,230.121495 L176.09383,187.767303 C176.092565,184.775063 178.282611,182.294211 181.147379,181.840805 C181.789513,179.220132 184.154979,177.275686 186.9745,177.276879 L186.9745,177.276879 Z M67.1395995,176.886632 C70.1318928,176.885374 72.612779,179.0755 73.0661191,181.940344 C75.6074778,182.563013 77.5127582,184.8061 77.6248151,187.512279 L77.6300315,187.767305 L77.6261775,230.121526 C77.6248157,233.359506 75.059612,235.998269 71.8505408,236.117841 L71.6256316,236.122072 L64.2134099,236.122746 C64.213046,236.123838 64.212682,236.123838 64.212318,236.123838 C60.9739211,236.123543 58.3349797,233.557728 58.2180011,230.348231 L58.2139559,230.123292 L58.2176595,196.299603 L24.7836124,196.302708 C21.5452156,196.30407 18.9058073,193.738759 18.7872255,190.529284 L18.7830666,190.304346 C18.7830665,190.303982 18.7830665,190.303618 18.7841584,190.303254 L18.7848329,182.891032 C18.7862264,179.57775 21.4720968,176.89188 24.7853788,176.890486 L67.1395995,176.886632 Z M234.261254,90.3514202 C236.605092,88.0095761 240.403479,88.0095761 242.747317,90.3514202 L242.747317,90.3514202 L247.989031,95.5921701 L247.989031,95.5921701 C250.333523,97.9355315 250.333173,101.734521 247.989031,104.076671 L247.989031,104.076671 L224.069478,127.990547 L247.713089,151.630208 C250.057231,153.972358 250.057581,157.771347 247.714651,160.114709 L247.713089,160.114709 L242.471374,165.355459 C240.127537,167.697303 236.32915,167.697303 233.985312,165.355459 L204.033599,135.409258 C201.916894,133.294353 201.711239,129.991588 203.416256,127.64529 C202.017286,125.338008 202.315003,122.290464 204.309542,120.297621 L204.309542,120.297621 Z M20.0144352,90.3514202 L49.966148,120.297621 C52.0828531,122.412526 52.2885085,125.715291 50.5834917,128.061589 C51.9824615,130.368871 51.6847447,133.416415 49.6902058,135.409258 L49.6902058,135.409258 L19.7384929,165.355459 C17.3946556,167.697303 13.596268,167.697303 11.2524307,165.355459 L11.2524307,165.355459 L6.01071611,160.114709 L6.01071611,160.114709 C3.66622436,157.771347 3.66657398,153.972358 6.01071611,151.630208 L6.01071611,151.630208 L29.9284784,127.715547 L6.28665833,104.076671 C3.94251619,101.734521 3.94216657,97.9355315 6.28509667,95.5921701 L6.28665833,95.5921701 L11.5283729,90.3514202 C13.8722102,88.0095761 17.6705979,88.0095761 20.0144352,90.3514202 Z M64.4205863,19.7843084 L71.8328181,19.7849867 C75.1460976,19.7863881 77.8319657,22.4722562 77.8333671,25.7855357 L77.8372431,68.1397283 C77.8385085,71.1322241 75.6480874,73.6132448 72.7829586,74.0663426 C72.1415607,76.686899 69.7760943,78.6313447 66.9565731,78.6301523 L66.9565731,78.6301523 L24.6023243,78.6262764 C21.2890448,78.624875 18.6031767,75.9390069 18.6017752,72.6257274 L18.6017752,72.6257274 L18.6010969,65.2135157 C18.5999989,65.2131498 18.5999989,65.2127837 18.5999989,65.2124177 C18.6003021,61.8987092 21.2868395,59.2126635 24.6005478,59.2140648 L24.6005478,59.2140648 L58.4234784,59.2165467 L58.4211354,25.7837593 C58.419766,22.5453624 60.985075,19.9059528 64.1945504,19.7873694 L64.4194883,19.7832103 C64.4198543,19.7832103 64.4202204,19.7832103 64.4205863,19.7843084 Z M189.69446,19.3929521 C192.932857,19.3932468 195.571799,21.9590618 195.688777,25.1685593 L195.692822,25.3934979 L195.689117,59.2184679 L229.123166,59.2140822 C232.436874,59.2126888 235.12341,61.8987359 235.123712,65.2124444 C235.123712,65.2128084 235.123712,65.2131723 235.12262,65.2135362 L235.121945,72.6257579 C235.120552,75.9390399 232.434681,78.6249103 229.121399,78.6263039 L186.767179,78.6301579 C183.774886,78.6314161 181.293999,76.4412898 180.840659,73.5764461 L180.797773,73.5666509 C178.277297,72.9282099 176.392732,70.6945535 176.281906,68.0031139 L176.276747,67.749485 L176.280601,25.3952643 C176.281963,22.1572842 178.847166,19.518521 182.056237,19.3989491 L182.281147,19.3947184 L189.693368,19.3940439 L189.69446,19.3929521 Z M94.6091894,7.00942357 C96.9525484,4.66649104 100.751538,4.66683673 103.093699,7.01096766 L103.093699,7.01096766 L127.007478,30.9295467 L150.647286,7.28690959 C152.989446,4.94277866 156.788436,4.94243297 159.131795,7.2853655 L159.131795,7.28690959 L164.37255,12.5286187 C166.714409,14.8724483 166.714409,18.6708427 164.37255,21.0146722 L134.426319,50.9663541 C132.311403,53.083049 129.008638,53.2887002 126.662341,51.5836809 C124.355063,52.9826541 121.307518,52.6849415 119.314666,50.6904121 L119.314666,50.6904121 L89.3684341,20.7387303 C87.0265754,18.3949008 87.0265754,14.5965063 89.3684341,12.2526768 L89.3684341,12.2526768 L94.6091894,7.01096766 L94.6091894,7.01096766 Z" id="形状结合" fill-opacity="0.9" fill="#FFFFFF"></path>
                <path d="M129.769018,-2.84217094e-13 C134.075157,-2.84217094e-13 137.565973,3.49081535 137.565973,7.79695431 L137.565,104.906 L206.232225,36.2394472 C209.277125,33.1945472 214.213883,33.1945472 217.258783,36.2394472 L219.943301,38.9239651 C222.988201,41.9688651 222.988201,46.9056235 219.943301,49.9505236 L151.459,118.434 L248.203046,118.434027 C252.509185,118.434027 256,121.924843 256,126.230982 L256,130.027463 C256,134.333602 252.509185,137.824418 248.203046,137.824418 L151.352,137.824 L219.760553,206.232225 C222.805453,209.277125 222.805453,214.213883 219.760553,217.258783 L217.076035,219.943301 C214.031135,222.988201 209.094376,222.988201 206.049476,219.943301 L137.565,151.459 L137.565973,248.203046 C137.565973,252.509185 134.075157,256 129.769018,256 L125.972537,256 C121.666398,256 118.175582,252.509185 118.175582,248.203046 L118.175,151.718 L49.9505236,219.943301 C46.9056235,222.988201 41.9688651,222.988201 38.9239651,219.943301 L36.2394472,217.258783 C33.1945472,214.213883 33.1945472,209.277125 36.2394472,206.232225 L104.647,137.824 L7.79695431,137.824418 C3.49081535,137.824418 2.13750792e-16,134.333602 4.77425757e-16,130.027463 L7.09893204e-16,126.230982 C9.73568169e-16,121.924843 3.49081535,118.434027 7.79695431,118.434027 L104.54,118.434 L36.056699,49.9505236 C33.0117989,46.9056235 33.0117989,41.9688651 36.056699,38.9239651 L38.7412168,36.2394472 C41.7861168,33.1945472 46.7228753,33.1945472 49.7677753,36.2394472 L118.175,104.647 L118.175582,7.79695431 C118.175582,3.49081535 121.666398,-2.84217094e-13 125.972537,-2.84217094e-13 L129.769018,-2.84217094e-13 Z" id="形状结合" fill="#D1EBFF"></path>
            </g>
        </g>
    </g>
</svg>