<svg width="256px" height="269px" viewBox="0 0 256 269" version="1.1" xmlns="http://www.w3.org/2000/svg" xmlns:xlink="http://www.w3.org/1999/xlink">
    <defs>
        <linearGradient x1="50%" y1="0%" x2="50%" y2="100%" id="linearGradient-1">
            <stop stop-color="#FFFFFF" offset="0%"></stop>
            <stop stop-color="#EFEFEF" offset="100%"></stop>
        </linearGradient>
        <linearGradient x1="50%" y1="0%" x2="50%" y2="100%" id="linearGradient-2">
            <stop stop-color="#FFEE1C" offset="0%"></stop>
            <stop stop-color="#FAD600" offset="100%"></stop>
        </linearGradient>
    </defs>
    <g stroke="none" stroke-width="1" fill="none" fill-rule="evenodd">
        <g id="Small-Icon" transform="translate(-308.000000, -243.000000)">
            <g id="Thunder-strom-alt" transform="translate(308.000000, 267.000000)">
                <path d="M92.7272727,185 L92.727,184.995 L92.0833333,185 C41.7356748,185 0.825505163,144.410471 0.0123365358,94.0296566 L0,92.5 C0,41.4136606 41.2271126,0 92.0833333,0 C126.187278,0 155.96103,18.6236446 171.875725,46.2989503 C176.267173,45.4241297 180.807635,44.9652778 185.454545,44.9652778 C223.863439,44.9652778 255,76.3131181 255,114.982639 C255,153.65216 223.863439,185 185.454545,185 L185.454545,185 L92.7272727,185 Z" fill="url(#linearGradient-1)"></path>
                <path d="M127.5,90 C126.165123,90 124.97129,90.8281416 124.507212,92.0756393 L86.9851264,162.982953 C86.3443338,163.995095 86.0028918,165.16683 86,166.363635 C86,169.878174 88.8584897,172.727271 92.3846154,172.727271 L124.307692,172.727271 L124.307692,226.81818 C124.307692,228.575449 125.736937,230 127.5,230 C128.697856,230 129.795688,229.334306 130.343146,228.272372 L168.139571,156.830609 L168.127102,156.818181 C168.693596,155.852481 168.994677,154.755004 169,153.636363 C169,150.121823 166.14151,147.272726 162.615385,147.272726 L130.692308,147.272726 L130.692308,93.1818181 C130.692308,91.4245485 129.263063,90 127.5,90 Z" id="路径" fill="url(#linearGradient-2)" fill-rule="nonzero"></path>
            </g>
        </g>
    </g>
</svg>